<?xml version="1.0" encoding="UTF-8"?>
<!DOCTYPE svg PUBLIC "-//W3C//DTD SVG 1.1//EN" "http://www.w3.org/Graphics/SVG/1.1/DTD/svg11.dtd">
<svg version="1.1" id="Layer_1" xmlns="http://www.w3.org/2000/svg" xmlns:xlink="http://www.w3.org/1999/xlink" x="0px" y="0px" viewBox="0 0 2628 1815.365" enable-background="new 0 0 2628 1815.365" xml:space="preserve">
<g>
	<path d="M1778.339,1119.966c-1.426,10.732-4.543,14.281-17.013,38.448c-7.824,15.165,13.397,30.121,29.765,28.204   c5.782-0.677,11.165-0.107,9.227,5.428c-4.363,12.465,4.234,22.968,20.859,13.506c15.248-8.678,14.988-16.907,23.244-21.014   c3.485,13.36,1.184,25.364-5.018,36.534c-16.08,28.96-40.11,28.906-97.599,33.332c-27.96,2.152-41.776-22.669-41.011,3.587   c0.856,29.349,0.693,58.668-2.471,87.894c-4.719,43.572-38.201,74.402-71.874,85.43c-42.151,13.804-68.021-20.893-90.009-59.952   c-8.819-15.666-143.57-271.839-161.538-369.999c-0.684-3.737-0.687-8.743-5.689-8.774c-18.328-0.116-4.9,137.835-3.979,166.858   c2.401,75.62-4.794,62.077-9.512,104.531c-5.17,46.521-11.169,264.722,6.275,333.534c3.789,14.946,8.201,29.741,12.643,44.51   c2.289,7.609,1.618,15.989,6.409,22.977c1.847,2.694,3.402,5.864,6.319,7.102c7.756,3.291,14.364,8.568,21.887,12.148   c20.109,9.568,45.897,36.98,20.334,42.88c-96.538,22.278-85.307-32.822-113.02-41.149c-16.639-5-25.98-22.283-21.856-39.184   c9.723-39.845-2.763-133.267-43.103-395.648c-15.438-100.415-9.669-98.621-17.03-98.989c-5.374-0.268-5.333,5.089-5.831,8.582   c-12.696,89.108-11.05,85.642,4.713,184.951c62.235,392.12,36.901,351.688,96.617,386.57c10.241,5.982,19.606,28.456-0.432,30.63   c-30.303,3.288-64.804-0.665-72.104-0.72c-22.077-0.166-23.179-18.055-42.169-37.458c-11.297-11.542-10.302-27.711-7.468-31.138   c4.862-5.88,7.09-2.248-16.628-128.837c-6.642-35.452-12.88-71.081-21.854-105.973c-14.545-56.552-23.1-114.217-34.471-171.35   c-15.486-77.815-29.2-89.772-45.351-152.574c-9.338-36.307,8.537-48.969-17.978-54.251   c-288.324-57.431-257.011-104.594-385.084-167.468c-21.56-10.584-59.25-26.342-82.872-22.365   c-27.51,4.632-21.756,23.894-24.336,76.01c-1.083,21.87-2.539,43.721-3.746,65.585c-2.64,47.813-111.942,280.849-125.493,303.818   c-5.06,8.576-26.505,88.021-37.006,155.667c-4.005,25.803-3.088,103.402,4.242,133.879c5.684,23.633,11.071,32.439,23.758,37.06   c27.207,9.908,40.607,23.478,46.494,35.486c2.711,5.53,2.547,6.416-2.564,9.163c-31.822,17.105-66.784-3.472-76.668-4.002   c-4.608-0.247-6.996,2.38-5.363,6.6c5.8,14.99,13.703,28.582,28.88,35.995c13.856,6.768,26.13,18.961,25.939,34.263   c-0.092,7.339-1.55,9.526-8.825,9.806c-10.434,0.401-61.899,5.782-72.856-5.473c-0.761-0.782-2.439-1.269-3.52-1.047   c-9.527,1.953-15.567-4.7-22.362-9.128c-23.623-15.391-20.318-61.751-26.291-155.687c-3.687-57.984-25.266-65.774-24.53-143.105   c0.411-43.14,21.281-82.138-16.034-316.248c-6.231-39.093-15.077-118.839-29.007-132.86c-4.819-4.85-7.094-11.863-8.174-18.301   c-1.629-9.71-22.992-83.313-21.905-77.966c-0.921-4.525-7.47-5.25-6.572-10.648c-7.838-7.07-8.574-17.696-12.906-26.506   c-18.844-38.325-16.875-51.543-25.391-49.812c-3.45,0.701-3.882,3.499-4.256,6.638c-38.495,323.286-1.394,192.737-92.576,458.707   c-12.103,35.305-15.552,47.599-28.953,61.552c-12.514,13.029-18.187,9.679-19.333,0.883c-2.451-18.818,11.657-58.918,17.475-78.812   c34.788-118.961,39.062-102.729,61.235-346.126c21.991-241.393,3.622-267.232,159.065-406.081   c124.079-110.834,245.718-89.687,308.122-84.755c37.989,3.003,130.142,14.679,210.414,29.094   c83.702,15.031,86.434,22.065,115.602,15.167c138.216-32.685,125.439-49.346,148.769-80.866   c20.813-28.12,81.555-164.264,136.583-246.076c34.298-50.992,50.154-65.956,94.733-100.87   c29.658-23.227,62.146-51.935,128.283-47.905c56.638,3.451,130.591,24.82,159.883,41.135c11.903,6.63,9.633,16.865,9.054,31.058   c-1.386,33.958,12.286,29.57,90.589,43.986c72.6,13.366,76.624,10.686,77.97,29.503c2.241,31.313-9.836,34.2-8.247,54.698   c2.459,31.705-2.181,61.066-26.594,84.475c-35.138,33.691-70.671,52.587-91.766,73.884c-16.804,16.966-48.289,21.703-72.858,3.745   c-21.88-15.993-9.955-26.201-63.575-10.302c-42.349,12.557-88.329,36.872-96.927,80.408   c-43.158,218.536,6.226,167.183,7.454,238.682c0.434,25.27,6.111,49.854,9.836,74.669c10.753,71.631,0.178,103.752-24.35,167.508   c-2.029,5.274-3.084,10.359-2.395,15.985c6.205,50.705,16.35,100.232,36.658,147.628c24.551,57.297,98.922,221.076,125.792,267.457   c33.121,57.167,70.985,73.699,118.365,27.304c26.667-26.113,22.648-67.104,23.741-121.014c0.712-35.128-1.186-55.541-4.813-88.704   c-3.44-31.455,15.867-57.531,47.154-62.217c14.943-2.238,30.107-3.002,45.176-4.382   C1775.645,1119.284,1776.592,1119.66,1778.339,1119.966z"/>
	<path d="M1769.782,1547.782c1.057-0.327,1.463-0.324,1.627-0.524c3.661-4.452,9.687-6.566,13.603-10.612   c17.589-18.185,42.349-89.689,183.217-166.747c13.508-7.39,8.08-15.441,21.1-44.944c11.041-25.017,16.519-61.77,18.568-87.53   c3.539-44.508-7.562-68.6,12.804-128.97c11.4-33.794,10.174-69.102,10.365-71.361c1.984-23.467-7.444-43.457-19.333-62.579   c-5.316-8.551-8.097-8.723-16.237-3.024c-24.991,17.496-54.263,18.955-118.652,145.399c-7.595,14.915-1.614,17.27-21.479,45.004   c-24.491,34.193-29.441,36.794-38.981,42.197c-7.313,4.14-14.925,1.793-13.423-9.334c0.873-6.473,4.472-10.888-5.042-11.866   c-11.485-1.181-16.39,6.173-33.999-13.064c-2.543-2.778-2.529-5.972,4.209-17.663c33.675-58.428,10.198-43.153,44.826-56.189   c9.968-3.752,8.31,0.507,67.567-116.506c32.921-65.007,105.521-145.498,120.328-162.849   c36.002-42.184,69.364-86.523,104.222-129.644c20.516-25.379-2.26-56.195-6.875-38.626c-1.671,6.361-7.255,11.531-5.353,19.057   c1.226,4.852-8.358,4.943-13.856-0.666c-24.174-24.658-39.291-53.166-38.438-88.703c0.464-19.336-6.663-60.975,6.574-93.596   c24.775-61.056,58.479-85.646,95.456-98.735c22.262-7.88,44.373-5.395,66.693-1.096c30.163,5.809,54.263,23.091,77.558,41.508   c63.223,49.984,68.135,61.38,57.555,115.853c-6.956,6.95-6.313,16.386-8.45,24.986c-1.803,7.258-6.598,13.225-10.876,19.264   c-11.13,15.715-0.933,16.919-2.092,50.531c-0.657,19.053-13.664,28.912-23.699,39.337c-9.902,10.288-1.536,11.062,11.318,23.682   c27.946,27.433,30.675,44.968,63.612,133.902c4.328,11.689,33.482,38.299,35.354,53.304c0.666,5.331,5.698,9.974,7.915,15.282   c24.252,58.055,28.315,57.348,33.067,75.011c6.125,22.767,21.771,40.783,29.37,62.668c3.973,11.441,25.434,14.509,31.678,35.013   c8.685,28.516,17.286,11.971,25.684,59.28c1.013,5.704-8.957,7.12-12.258-3.843c-6.735-22.361-15.523-9.758-17.352-4.755   c-2.766,7.567-7.827,14.122-9.621,22.106c-1.573,6.998-12.06,5.975-12.24-1.868c-0.134-5.858,2.131-13.23,2.343-14.23   c1.007-4.752-5.941-10.337-10.083-4.345c-3.92,5.672-7.069,11.163-8.284,13.035c-3.887,5.991-14.995,4.11-12.378-5.416   c3.269-11.902,8.23-15.916,3.039-19.475c-7.269-4.982-11.041,10.229-19.186,7.097c-3.92-1.507-3.476-4.947-3.167-8.2   c1.174-12.323-12.896-1.692-14.607-17.957c-4.005-38.073,7.215-42.633-6.853-55.204c-44.275-39.566-85.422-133.059-93.117-102.13   c-4.625,18.592-41.092,138.82-41.402,139.821c-1.531,4.945-1.497,9.391,1.032,13.936c27.455,49.343,22.138,47.435,36.13,102.224   c3.072,12.027,3.442,24.169,2.291,36.456c-0.33,3.519-1.21,5.144-5.316,4.633c-14.594-1.815-24.037,1.677-37.157-4.167   c-5.682-2.53-10.021-3.384-12.488-0.145c-2.786,3.658,0.385,7.393,3.935,12.953c36.695,57.45,61.409,70.632,80.222,122.361   c6.573,18.075-0.347,15.004,9.885,48.053c23.252,75.104,33.675,68.174,61.482,162.449c3.531,11.973,3.761,7.799-24.111,20.825   c-7.229,3.378-3.07,7.779,8.603,28.203c1.372,2.4,3.516,3.674,6.282,3.938c14.168,1.352,26.339,8.152,38.732,14.301   c31.272,15.517,10.448-1.214,63.031,28.687c11.366,6.462,22.514,16.08,39.448,15.587c11.304-0.329,21.895,4.787,31.63,10.783   c34.348,21.155-52.178,54.482-92.937,61.692c-39.296,6.951-111.801,8.666-151.291,6.016c-23.087-1.549-26.057-11.385-24.325-34.842   c0.211-2.864,2.109-57.264,2.109-57.264c-0.235-15.336,15.444-8.143,8.699-22.294c-15.307-32.115-24.118-5.38-34.064-19.871   c-30.698-44.725-96.508-87.44-129.882-158.503c-28.75-61.216-27.782-66.416-38.236-54.47c-2.197,2.51-7.171,4.292-2.449,8.755   c-3.524,9.978-6.273,36.4-41.16,57.936c-80.051,49.416-149.3,81.363-149.3,81.363c-11.998,7.454-22.139,1.833-39.124-10.669   c-7.389-5.439-8.472,0.751-23.856,14.418c-6.688,5.941,0.842,12.629,7.992,17.94c20.715,15.389,16.464,21.466,28.682,42.413   c6.409,10.988,14.298,6.835,44.335,31.879c6.131,5.111,4.211,10.685,3.175,16.687c-0.931,5.392-3.676,8.752-9.188,9.715   c-16.765,2.93-50.591,2.947-68.28,1.201c-26.711-2.637-49.986-14.001-72.921-26.148c-59.695-31.616-120.234-51.435-100.133-71.433   c14.285-14.211,7.367-16.965,48.475-57.093c6.265-6.116,9.509-4.885,11.883,3.625   C1764.814,1544.147,1768.904,1544.766,1769.782,1547.782z M1804.529,1163.203c-2.592-1.757-2.836-5.004-5.347-6.946   c-2.862,3.815-6.557,6.47-5.323,11.792C1798.202,1167.123,1800.141,1162.818,1804.529,1163.203z M1810.295,1170.525   c-4.276-0.759-6.59,1.572-9.008,3.503c-3.301,2.637,1.513,4.947,2.989,3.286   C1806.152,1175.203,1809.138,1174.131,1810.295,1170.525z"/>
</g>
</svg>